<svg width="24" height="24" viewBox="0 0 24 24" fill="none" xmlns="http://www.w3.org/2000/svg">
<g clip-path="url(#clip0_1090_21)">
<path d="M18.2883 11.6827C18.1878 10.341 17.7375 9.04911 16.9823 7.93566C16.2019 6.78046 15.0805 5.89748 13.7745 5.40974C12.4685 4.92201 11.0429 4.85381 9.69629 5.21466C8.35392 5.52084 7.13453 6.2233 6.19625 7.23094C5.25798 8.23858 4.64412 9.5049 4.43429 10.8657C4.35914 11.3913 4.35914 11.925 4.43429 12.4507C4.51129 12.9967 4.71229 13.5187 5.02229 13.9757C5.57029 14.7527 6.41729 14.9717 6.84629 15.5797C7.01229 15.8147 7.08629 16.1017 7.05629 16.3877C7.05105 16.4588 7.07419 16.5292 7.12066 16.5833C7.16713 16.6375 7.23315 16.671 7.30429 16.6767H7.58429C8.29829 16.874 9.02229 17.0233 9.75629 17.1247C10.0703 17.1647 10.386 17.1847 10.7033 17.1847H11.6503C12.3773 17.1847 13.0953 17.0447 13.8333 16.9447C13.8762 16.9462 13.919 16.9389 13.9589 16.9231C13.9988 16.9073 14.035 16.8833 14.0652 16.8528C14.0954 16.8223 14.1189 16.7858 14.1343 16.7457C14.1496 16.7056 14.1565 16.6627 14.1544 16.6198C14.1523 16.5769 14.1413 16.5349 14.1222 16.4965C14.103 16.4581 14.0761 16.424 14.0431 16.3966C14.01 16.3691 13.9717 16.3488 13.9304 16.3369C13.8891 16.3251 13.8458 16.3219 13.8033 16.3277L11.6503 16.2077H7.60329C7.60329 15.8777 7.50329 15.5537 7.31429 15.2807C6.90629 14.6927 6.07829 14.4237 5.56029 13.6467C5.33233 13.2636 5.19261 12.8345 5.15129 12.3907C5.089 11.9239 5.09574 11.4505 5.17129 10.9857C5.39401 9.80079 5.96565 8.70949 6.81287 7.85176C7.66009 6.99402 8.74426 6.40897 9.92629 6.17166C11.0759 5.87433 12.2895 5.94088 13.3997 6.36212C14.51 6.78336 15.4622 7.53856 16.1253 8.52366C16.7757 9.48087 17.1671 10.5902 17.2613 11.7437C17.3224 12.2967 17.2651 12.8563 17.0932 13.3855C16.9213 13.9147 16.6388 14.4012 16.2643 14.8127C16.1127 14.9641 15.9532 15.1073 15.7863 15.2417C15.3373 15.5897 14.8893 15.8687 14.4503 16.2377C14.2889 16.3991 14.1694 16.5975 14.1023 16.8157C14.009 17.1437 13.9356 17.476 13.8823 17.8127C13.8723 18.0427 13.7963 18.2627 13.6633 18.4507C13.0439 18.9816 12.2452 19.256 11.4303 19.2177C10.1833 19.1793 8.95399 18.9126 7.80329 18.4307C7.89329 18.2707 7.80329 17.7827 7.80329 17.4837C7.79788 17.4007 7.76042 17.3231 7.69883 17.2673C7.63724 17.2115 7.55635 17.1819 7.47329 17.1847C7.39155 17.1903 7.31537 17.2281 7.26141 17.2897C7.20744 17.3514 7.18007 17.4319 7.18529 17.5137C7.18529 17.9127 7.11529 18.4207 7.18529 18.6397C7.19878 18.7076 7.22846 18.7712 7.27181 18.8252C7.31516 18.8791 7.3709 18.9218 7.43429 18.9497C8.71329 19.5397 10.0943 19.8777 11.5003 19.9457C12.5138 20.012 13.5137 19.6834 14.2903 19.0287C14.4503 18.8737 14.5703 18.6817 14.6403 18.4707C14.7443 18.144 14.824 17.8117 14.8793 17.4737C14.8743 17.2977 14.9123 17.1237 14.9893 16.9657C15.4273 16.5867 15.8663 16.3377 16.3043 15.9687C16.511 15.816 16.7036 15.6467 16.8823 15.4607C17.3744 14.969 17.7547 14.377 17.9973 13.725C18.24 13.073 18.3392 12.3764 18.2883 11.6827Z" fill="currentColor"/>
<path d="M9.6957 13.9757C9.7557 13.3977 9.7957 12.8097 9.8457 12.2317C10.0024 12.3931 10.1784 12.5291 10.3737 12.6397C10.6917 12.8417 11.0637 12.9417 11.4407 12.9297C11.7907 12.9197 12.1327 12.8237 12.4367 12.6497V13.4767C12.4334 14.1261 12.4867 14.7707 12.5967 15.4107C12.5967 15.6207 13.0947 15.7497 13.1947 15.4107C13.1347 14.7667 13.1347 14.1221 13.1947 13.4767C13.3334 12.6001 13.5294 11.7367 13.7827 10.8867C13.8145 10.7903 13.8119 10.6858 13.7755 10.591C13.739 10.4963 13.6709 10.417 13.5827 10.3667C13.4924 10.2984 13.3797 10.2666 13.267 10.2777C13.1543 10.2888 13.0499 10.3421 12.9747 10.4267C12.9343 10.4753 12.9007 10.5291 12.8747 10.5867L12.7657 10.8067L12.5257 11.1947C12.3916 11.3821 12.2187 11.5383 12.0187 11.6527C11.84 11.7672 11.6329 11.8296 11.4207 11.8327C11.1912 11.8304 10.9694 11.7492 10.7927 11.6027C10.5762 11.4462 10.3986 11.2419 10.2737 11.0057L10.0947 10.5567C10.0947 10.4667 10.0247 10.2477 10.0047 10.1877C9.95823 10.1261 9.89811 10.076 9.82906 10.0415C9.76001 10.007 9.6839 9.98891 9.6067 9.98872C9.52707 9.96829 9.44342 9.96957 9.36446 9.99244C9.28549 10.0153 9.2141 10.0589 9.1577 10.1187C8.8387 10.4567 9.0877 12.3707 8.9477 14.5937C8.97102 14.8088 8.97102 15.0257 8.9477 15.2407C8.9477 15.6607 9.4177 15.7797 9.5267 15.3407C9.6327 14.8937 9.6887 14.4357 9.6957 13.9757ZM3.0977 6.18172C2.97517 6.03258 2.83854 5.89561 2.6897 5.77272L2.2307 5.43372C1.8617 5.19472 1.4737 5.00572 1.0847 4.78572C1.01672 4.73823 0.932953 4.71899 0.851061 4.73205C0.769168 4.7451 0.695543 4.78944 0.6457 4.85572C0.598778 4.92212 0.579821 5.0043 0.592915 5.08454C0.606008 5.16479 0.650104 5.23668 0.7157 5.28472C1.0157 5.59372 1.3037 5.90272 1.6127 6.20172C1.7427 6.33172 1.8727 6.46072 2.0017 6.56972C2.1317 6.67972 2.2707 6.79972 2.4107 6.90972C2.75603 7.14372 3.08803 7.39605 3.4067 7.66672C3.45721 7.71649 3.52528 7.74439 3.5962 7.74439C3.66712 7.74439 3.73518 7.71649 3.7857 7.66672C3.81536 7.64509 3.8403 7.61764 3.85899 7.58605C3.87768 7.55446 3.88974 7.51939 3.89442 7.48298C3.8991 7.44657 3.8963 7.40959 3.88621 7.3743C3.87611 7.33901 3.85893 7.30614 3.8357 7.27772C3.63225 6.88547 3.38465 6.51775 3.0977 6.18172ZM7.0647 1.73672C7.1147 1.92005 7.17803 2.09939 7.2547 2.27472C7.3247 2.44472 7.3937 2.61372 7.4837 2.78272C7.6927 3.17172 7.9417 3.52072 8.1607 3.91872C8.19332 3.97639 8.24534 4.02063 8.30751 4.04356C8.36968 4.06649 8.43796 4.06663 8.50022 4.04396C8.56248 4.02128 8.61468 3.97726 8.64754 3.91973C8.68041 3.86219 8.6918 3.79487 8.6797 3.72972C8.61471 3.28299 8.52457 2.84029 8.4097 2.40372C8.35526 2.22149 8.29219 2.04196 8.2207 1.86572C8.16243 1.69177 8.09227 1.52204 8.0107 1.35772C7.7537 0.958719 7.5147 0.599719 7.2847 0.211719C7.27135 0.171774 7.25 0.134969 7.22195 0.103551C7.1939 0.0721316 7.15974 0.0467579 7.12156 0.0289777C7.08338 0.0111976 7.04198 0.00138411 6.99988 0.000136129C6.95778 -0.00111186 6.91587 0.00623186 6.8767 0.0217191C6.80182 0.0527883 6.74209 0.111956 6.71031 0.186541C6.67853 0.261125 6.67723 0.345191 6.7067 0.420719C6.8267 0.888719 6.9267 1.31772 7.0667 1.73672M14.5097 4.35772C14.5452 4.36188 14.5812 4.35896 14.6155 4.34912C14.6499 4.33928 14.6819 4.32272 14.7098 4.30039C14.7377 4.27807 14.7609 4.25043 14.7781 4.21907C14.7952 4.18771 14.806 4.15326 14.8097 4.11772C14.9497 3.75572 15.0724 3.38705 15.1777 3.01172C15.2277 2.79272 15.2477 2.56372 15.2777 2.34472C15.2865 2.0099 15.3233 1.6764 15.3877 1.34772C15.4095 1.31041 15.4237 1.26915 15.4295 1.22632C15.4353 1.18349 15.4325 1.13994 15.4214 1.09819C15.4102 1.05644 15.3909 1.01731 15.3645 0.983073C15.3381 0.948835 15.3052 0.920164 15.2677 0.898719C15.1922 0.855458 15.1026 0.843795 15.0185 0.866271C14.9344 0.888747 14.8626 0.943541 14.8187 1.01872C14.6067 1.32751 14.4359 1.66268 14.3107 2.01572C14.2607 2.16572 14.2207 2.31839 14.1907 2.47372C14.1807 2.63039 14.1807 2.78672 14.1907 2.94272C14.1907 3.32072 14.2707 3.65972 14.3007 3.99872C14.2903 4.03609 14.2876 4.07515 14.2926 4.11361C14.2976 4.15206 14.3103 4.18912 14.3298 4.22259C14.3494 4.25606 14.3755 4.28526 14.4066 4.30847C14.4376 4.33169 14.4721 4.34843 14.5097 4.35772ZM23.0817 7.49672C22.6127 7.49672 22.1747 7.42672 21.7157 7.42672H21.1277C20.9377 7.42672 20.7387 7.49672 20.5497 7.54672C20.1044 7.69739 19.6757 7.88672 19.2637 8.11472C19.2227 8.12042 19.1835 8.13514 19.1489 8.15782C19.1143 8.18049 19.0851 8.21056 19.0635 8.24585C19.0419 8.28115 19.0284 8.32079 19.0239 8.36193C19.0195 8.40308 19.0242 8.4447 19.0378 8.48379C19.0513 8.52289 19.0734 8.5585 19.1023 8.58805C19.1313 8.6176 19.1665 8.64037 19.2053 8.6547C19.2441 8.66904 19.2856 8.6746 19.3269 8.67097C19.3681 8.66734 19.408 8.65462 19.4437 8.63372C19.8917 8.56372 20.3107 8.56372 20.7387 8.53372L21.2777 8.47372L21.8257 8.37372C22.2537 8.28372 22.6727 8.17472 23.1207 8.08472C23.2025 8.07477 23.2776 8.03457 23.3313 7.97202C23.385 7.90946 23.4133 7.8291 23.4107 7.74672C23.3962 7.6717 23.3545 7.6047 23.2936 7.55856C23.2326 7.51242 23.1568 7.4904 23.0807 7.49672M12.9157 21.0017C12.583 21.0224 12.2507 21.0224 11.9187 21.0017C11.5987 21.0017 11.2807 20.9517 10.9217 20.9317L9.9257 20.8817C9.2677 20.8817 8.6197 20.8817 7.9317 20.8117C7.86032 20.797 7.78601 20.8107 7.72458 20.8499C7.66315 20.8892 7.61942 20.9508 7.6027 21.0217C7.58771 21.0933 7.60129 21.1678 7.64052 21.2295C7.67976 21.2911 7.74155 21.335 7.8127 21.3517C8.37135 21.5735 8.94817 21.7465 9.5367 21.8687C9.79403 21.9154 10.053 21.9421 10.3137 21.9487C10.573 21.9687 10.8324 21.9687 11.0917 21.9487C11.7357 21.8967 12.37 21.7871 12.9947 21.6197C13.076 21.605 13.1485 21.5594 13.1969 21.4925C13.2454 21.4256 13.2661 21.3425 13.2547 21.2607C13.2421 21.1822 13.1998 21.1115 13.1365 21.0633C13.0732 21.015 12.9938 20.993 12.9147 21.0017M11.8397 23.0157C11.5058 23.0066 11.1728 22.9765 10.8427 22.9257C10.6236 22.9113 10.4038 22.9113 10.1847 22.9257C9.7857 22.9257 9.4167 23.0257 9.0287 23.0657C8.99328 23.0615 8.95739 23.0644 8.92309 23.0742C8.8888 23.084 8.85678 23.1005 8.82888 23.1227C8.80099 23.1449 8.77778 23.1724 8.76058 23.2037C8.74338 23.2349 8.73255 23.2693 8.7287 23.3047C8.72549 23.3779 8.74914 23.4496 8.79519 23.5066C8.84123 23.5635 8.9065 23.6016 8.9787 23.6137C9.3147 23.7424 9.6567 23.8517 10.0047 23.9417C10.1527 23.9684 10.3024 23.9851 10.4537 23.9917C10.6064 24.0017 10.759 24.0017 10.9117 23.9917C11.2895 23.9195 11.6556 23.7956 11.9997 23.6237C12.0783 23.6045 12.1464 23.5554 12.1894 23.4869C12.2324 23.4183 12.247 23.3357 12.2301 23.2566C12.2132 23.1774 12.166 23.108 12.0988 23.063C12.0315 23.018 11.9493 23.0011 11.8697 23.0157H11.8397Z" fill="currentColor"/>
</g>
<defs>
<clipPath id="clip0_1090_21">
<rect width="24" height="24"/>
</clipPath>
</defs>
</svg>
