<svg width="36" height="36" viewBox="0 0 36 36" fill="none" xmlns="http://www.w3.org/2000/svg">
<path d="M31.4955 10.125C31.4955 8.63316 30.9029 7.20242 29.848 6.14752C28.7931 5.09263 27.3623 4.5 25.8705 4.5H10.125C8.63316 4.5 7.20242 5.09263 6.14752 6.14752C5.09263 7.20242 4.5 8.63316 4.5 10.125V25.8705C4.5 27.3623 5.09263 28.7931 6.14752 29.848C7.20242 30.9029 8.63316 31.4955 10.125 31.4955H13.6035L14.166 29.2455H10.125C9.22989 29.2455 8.37145 28.8899 7.73851 28.257C7.10558 27.6241 6.75 26.7656 6.75 25.8705V13.5H30.006C30.162 13.4925 30.3173 13.4925 30.4718 13.5H31.4955V10.125ZM10.125 6.75H25.8705C26.7656 6.75 27.6241 7.10558 28.257 7.73851C28.8899 8.37145 29.2455 9.22989 29.2455 10.125V11.25H6.75V10.125C6.75 9.22989 7.10558 8.37145 7.73851 7.73851C8.37145 7.10558 9.22989 6.75 10.125 6.75ZM30.42 15.7478C30.0236 15.7284 29.6268 15.7748 29.2455 15.885C28.701 16.047 28.188 16.3418 27.756 16.7715L18.1125 26.4195C17.3325 27.2027 16.7722 28.1773 16.488 29.2455L16.4677 29.3197L15.786 32.0445C15.7283 32.2745 15.7313 32.5156 15.7945 32.7441C15.8577 32.9727 15.9791 33.181 16.1468 33.3487C16.3145 33.5164 16.5228 33.6378 16.7514 33.701C16.9799 33.7642 17.221 33.7672 17.451 33.7095L20.1735 33.0278C21.271 32.7509 22.2736 32.1835 23.076 31.3853L32.724 21.7373C33.2047 21.2573 33.5359 20.6482 33.6773 19.9838C33.8187 19.3194 33.7642 18.6282 33.5205 17.9941C33.2768 17.36 32.8544 16.8103 32.3045 16.4115C31.7545 16.0128 31.0984 15.7822 30.42 15.7478ZM13.4955 18.5602C13.4955 18.7814 13.4519 19.0004 13.3673 19.2047C13.2827 19.4091 13.1586 19.5947 13.0022 19.7511C12.8458 19.9075 12.6602 20.0315 12.4559 20.1162C12.2515 20.2008 12.0325 20.2444 11.8114 20.2444C11.5902 20.2444 11.3712 20.2008 11.1669 20.1162C10.9626 20.0315 10.7769 19.9075 10.6205 19.7511C10.4641 19.5947 10.3401 19.4091 10.2554 19.2047C10.1708 19.0004 10.1272 18.7814 10.1272 18.5602C10.1272 18.1136 10.3047 17.6852 10.6205 17.3694C10.9364 17.0536 11.3647 16.8761 11.8114 16.8761C12.258 16.8761 12.6864 17.0536 13.0022 17.3694C13.3181 17.6852 13.4955 18.1136 13.4955 18.5602ZM11.8103 25.8682C12.2569 25.8682 12.6853 25.6908 13.0011 25.375C13.3169 25.0591 13.4944 24.6308 13.4944 24.1841C13.4944 23.7375 13.3169 23.3091 13.0011 22.9933C12.6853 22.6774 12.2569 22.5 11.8103 22.5C11.3636 22.5 10.9352 22.6774 10.6194 22.9933C10.3036 23.3091 10.1261 23.7375 10.1261 24.1841C10.1261 24.6308 10.3036 25.0591 10.6194 25.375C10.9352 25.6908 11.3636 25.8682 11.8103 25.8682ZM19.6852 18.558C19.6852 19.0044 19.5079 19.4324 19.1923 19.7481C18.8767 20.0637 18.4486 20.241 18.0023 20.241C17.5559 20.241 17.1278 20.0637 16.8122 19.7481C16.4966 19.4324 16.3192 19.0044 16.3192 18.558C16.3192 18.1113 16.4967 17.683 16.8125 17.3671C17.1284 17.0513 17.5567 16.8739 18.0034 16.8739C18.45 16.8739 18.8784 17.0513 19.1942 17.3671C19.5101 17.683 19.6875 18.1113 19.6875 18.558" fill="white"/>
</svg>
