<svg width="90" height="90" viewBox="0 0 90 90" fill="none" xmlns="http://www.w3.org/2000/svg">
<rect x="2.5" y="2.5" width="85" height="85" rx="42.5" stroke="white" stroke-width="5"/>
<path d="M38.4668 53.4L61.0668 30.8C61.6002 30.2667 62.2224 30 62.9335 30C63.6446 30 64.2668 30.2667 64.8002 30.8C65.3335 31.3333 65.6002 31.9671 65.6002 32.7013C65.6002 33.4356 65.3335 34.0684 64.8002 34.6L40.3335 59.1333C39.8002 59.6667 39.1779 59.9333 38.4668 59.9333C37.7557 59.9333 37.1335 59.6667 36.6002 59.1333L25.1335 47.6667C24.6002 47.1333 24.3442 46.5004 24.3655 45.768C24.3868 45.0356 24.665 44.4018 25.2002 43.8667C25.7353 43.3316 26.369 43.0649 27.1015 43.0667C27.8339 43.0684 28.4668 43.3351 29.0002 43.8667L38.4668 53.4Z" fill="white"/>
</svg>
