<svg width="50" height="50" viewBox="0 0 50 50" fill="none" xmlns="http://www.w3.org/2000/svg">
<path opacity="0.987" fill-rule="evenodd" clip-rule="evenodd" d="M22.5275 3.31558C24.7932 3.06245 26.1338 3.06245 28.5682 3.31558C32.8773 3.95337 36.872 5.94522 39.9744 9.00308C37.8779 10.9847 35.809 12.9954 33.7682 15.0343C29.8598 11.7218 25.4973 10.9572 20.6807 12.7406C17.1473 14.3656 14.6869 16.9989 13.2994 20.6406C11.032 18.9525 8.7942 17.2252 6.58691 15.4593C6.43352 15.3786 6.25831 15.349 6.08691 15.375C9.59316 8.61453 15.0723 4.5937 22.5244 3.31245" fill="#F44336"/>
<path opacity="0.997" fill-rule="evenodd" clip-rule="evenodd" d="M6.08106 15.375C6.25814 15.3479 6.42585 15.376 6.58419 15.4593C8.79147 17.2252 11.0293 18.9525 13.2967 20.6406C12.9399 22.0595 12.715 23.5084 12.6248 24.9687C12.7019 26.3812 12.9259 27.7677 13.2967 29.1281L6.24981 34.7375C3.18106 28.325 3.12481 21.8708 6.08106 15.375Z" fill="#FFC107"/>
<path opacity="0.999" fill-rule="evenodd" clip-rule="evenodd" d="M39.6402 41.5313C37.4461 39.5962 35.149 37.7811 32.759 36.0938C35.1548 34.4021 36.609 32.0813 37.1215 29.1313H25.3809V20.9782C32.1517 20.9219 38.9194 20.9792 45.684 21.1501C46.9673 28.1188 45.485 34.4021 41.2371 40.0001C40.732 40.537 40.1969 41.0481 39.6402 41.5313Z" fill="#448AFF"/>
<path opacity="0.993" fill-rule="evenodd" clip-rule="evenodd" d="M13.2969 29.1311C15.8594 35.4999 20.5573 38.4728 27.3906 38.0499C29.3089 37.8278 31.148 37.1577 32.7594 36.0936C35.151 37.7853 37.4448 39.5978 39.6406 41.5311C36.1614 44.6575 31.7253 46.5126 27.0562 46.7936C25.9954 46.8784 24.9296 46.8784 23.8687 46.7936C15.9146 45.8561 10.0417 41.8374 6.25 34.7374L13.2969 29.1311Z" fill="#43A047"/>
</svg>
