<?xml version="1.0" encoding="utf-8"?>
<!-- Generator: Adobe Illustrator 24.2.3, SVG Export Plug-In . SVG Version: 6.00 Build 0)  -->
<svg version="1.1" id="Layer_1" xmlns="http://www.w3.org/2000/svg" xmlns:xlink="http://www.w3.org/1999/xlink" x="0px" y="0px"
	 viewBox="0 0 30 30" style="enable-background:new 0 0 30 30;" xml:space="preserve">
<style type="text/css">
	.st0{fill:#BEBEBE;}
	.st1{fill-opacity:0.7;}
</style>
<path class="st0" d="M25.6,6.9c0-0.3-0.2-0.6-0.4-0.8c-0.2-0.2-0.5-0.3-0.8-0.4c-0.3-0.1-0.6,0-0.9,0.1L13.1,16.1l-2.7-2.7l-0.1-0.1
	c-0.3-0.1-0.6-0.2-0.9-0.1c-0.3,0.1-0.6,0.2-0.8,0.4c-0.2,0.2-0.3,0.5-0.4,0.8c-0.1,0.3,0,0.6,0.1,0.9l3.8,3.9
	c0.2,0.3,0.6,0.5,1,0.5l0,0l0,0c0.4,0,0.7-0.2,0.9-0.5L25.4,7.9l0.1-0.1C25.6,7.4,25.6,7.1,25.6,6.9z"/>
<path class="st1" d="M15,26.3c-2,0-4-0.5-5.7-1.6c-1.7-1-3.2-2.5-4.1-4.3c-0.7-1.3-1.2-2.8-1.3-4.3C3.6,14,4,11.7,5,9.8
	c1-2,2.6-3.6,4.5-4.6c1.3-0.7,2.8-1.2,4.3-1.3c1.5-0.2,3,0,4.4,0.4c0.1,0,0.2,0.1,0.4,0.2c0.1,0.1,0.2,0.2,0.3,0.3
	C19,4.8,19,4.9,19,5c0,0.1,0,0.3,0,0.4c0,0.1-0.1,0.2-0.2,0.3c-0.1,0.1-0.2,0.2-0.3,0.2c-0.1,0.1-0.2,0.1-0.4,0.1
	c-0.1,0-0.3,0-0.4-0.1c-1.2-0.4-2.5-0.5-3.8-0.3c-1.2,0.1-2.5,0.5-3.6,1.1c-1.1,0.6-2,1.4-2.7,2.3c-0.8,1-1.4,2.1-1.7,3.2
	c-0.4,1.2-0.5,2.4-0.3,3.7c0.1,1.2,0.5,2.5,1.1,3.6c0.6,1.1,1.4,2,2.3,2.8c1,0.8,2.1,1.4,3.2,1.7c1.2,0.4,2.4,0.5,3.7,0.3
	c1.2-0.1,2.5-0.5,3.6-1.1c1.1-0.6,2-1.4,2.8-2.3c0.8-1,1.4-2.1,1.7-3.2c0.4-1.2,0.5-2.4,0.3-3.7c0-0.3,0.1-0.5,0.2-0.7
	c0.2-0.2,0.4-0.3,0.7-0.4c0.3,0,0.5,0.1,0.7,0.2c0.2,0.2,0.3,0.4,0.4,0.7c0.2,2.2-0.2,4.4-1.2,6.4c-1,2-2.6,3.6-4.5,4.6
	c-1.3,0.8-2.8,1.2-4.3,1.4H15z"/>
</svg>
