<?xml version="1.0" encoding="utf-8"?>
<!-- Generator: Adobe Illustrator 24.2.3, SVG Export Plug-In . SVG Version: 6.00 Build 0)  -->
<svg version="1.1" id="Layer_1" xmlns="http://www.w3.org/2000/svg" xmlns:xlink="http://www.w3.org/1999/xlink" x="0px" y="0px"
	 viewBox="0 0 20 20" style="enable-background:new 0 0 20 20;" xml:space="preserve">
<style type="text/css">
	.st0{fill:#3F6191;}
	.st1{fill:#FFFFFF;}
	.st2{fill:#D02125;}
	.st3{fill:url(#SVGID_1_);}
</style>
<g>
	<g id="XMLID_289_">
		<g id="XMLID_283_">
			<polygon id="XMLID_281_" class="st0" points="9.8,1.8 6.4,1.8 6.4,2.4 8.8,3.6 			"/>
			<polygon id="XMLID_282_" class="st0" points="9.9,1.8 13.2,1.8 13.2,2.4 10.8,3.6 			"/>
		</g>
		<path id="XMLID_210_" class="st1" d="M9.8,1L9.8,1C9.2,1,8.7,1.5,8.6,2.1l-1,14.1c0,0.9,0.4,1.7,1,2.3l0,0
			c0.6,0.5,1.5,0.6,2.1,0.1l0.1,0c0.7-0.6,1.1-1.5,1.1-2.4L11,2.1C11,1.5,10.5,1,9.8,1z"/>
		<g id="XMLID_244_">
			<path id="XMLID_240_" class="st2" d="M2.7,8.4l-1,0l0,2c0,0.3,0.2,0.5,0.5,0.5l0,0c0.3,0,0.5-0.2,0.5-0.5L2.7,8.4z"/>
			<path id="XMLID_242_" class="st2" d="M4.5,9.7l-1,0l0,2c0,0.3,0.2,0.5,0.5,0.5l0,0c0.3,0,0.5-0.2,0.5-0.5L4.5,9.7z"/>
			<path id="XMLID_243_" class="st2" d="M6.2,10.4l-1,0l0,2c0,0.3,0.2,0.5,0.5,0.5l0,0c0.3,0,0.5-0.2,0.5-0.5L6.2,10.4z"/>
			<polygon id="XMLID_239_" class="st1" points="8.6,14 0,8 0,6.6 8.6,9.8 			"/>
			<polygon id="XMLID_241_" class="st1" points="9,8.7 4.5,8.7 7.8,12 			"/>
		</g>
		<g id="XMLID_245_">
			<path id="XMLID_280_" class="st2" d="M17.3,8.4l1,0l0,2c0,0.3-0.2,0.5-0.5,0.5l0,0c-0.3,0-0.5-0.2-0.5-0.5L17.3,8.4z"/>
			<path id="XMLID_279_" class="st2" d="M15.5,9.7l1,0v2c0,0.3-0.2,0.5-0.5,0.5h0c-0.3,0-0.5-0.2-0.5-0.5L15.5,9.7z"/>
			<path id="XMLID_278_" class="st2" d="M13.8,10.4l1,0l0,2c0,0.3-0.2,0.5-0.5,0.5l0,0c-0.3,0-0.5-0.2-0.5-0.5L13.8,10.4z"/>
			<polygon id="XMLID_277_" class="st1" points="11.4,14 20,8 20,6.6 11.4,9.8 			"/>
			<polygon id="XMLID_246_" class="st1" points="11,8.7 15.5,8.7 12.2,12 			"/>
		</g>
		<g id="XMLID_286_">
			<path id="XMLID_301_" class="st0" d="M10.8,17.1c-0.7,0.5-1.2,0.5-1.9,0c-0.1,0.1-0.1,0.2-0.2,0.3c0.9,0.6,1.5,0.6,2.4,0
				C11,17.3,10.9,17.3,10.8,17.1z"/>
		</g>
	</g>
	
		<linearGradient id="SVGID_1_" gradientUnits="userSpaceOnUse" x1="-146.7401" y1="515.5242" x2="-217.8445" y2="436.5193" gradientTransform="matrix(0.7071 0.7071 0.7071 -0.7071 -134.4878 472.16)">
		<stop  offset="0" style="stop-color:#000000;stop-opacity:0"/>
		<stop  offset="1" style="stop-color:#000000;stop-opacity:0.3"/>
	</linearGradient>
	<path class="st3" d="M17.3,10.4l0-0.5l-0.8,0.6l0,1.3c0,0.3-0.2,0.5-0.5,0.5h0c-0.3,0-0.5-0.2-0.5-0.5v-0.5l-0.7,0.5l0,0.8
		c0,0.3-0.2,0.5-0.5,0.5c-0.3,0-0.5-0.2-0.5-0.5l0-0.1l-2,1.4l0.1,2.4c0,0.9-0.4,1.8-1.1,2.4l-0.1,0c-0.3,0.2-0.6,0.3-0.9,0.4l0-1.1
		l0-0.4L9.8,1c0.5,0,1,0.4,1.1,0.8l2.3,0l0,0.5l-2.1,1.1l0.3,5.3l2.9,0L20,6.6L20,8l-1.7,1.2l0,1.3c0,0.3-0.2,0.5-0.5,0.5
		C17.5,10.9,17.3,10.7,17.3,10.4z"/>
</g>
</svg>
